<?xml version="1.0" standalone="no"?>
<!DOCTYPE svg PUBLIC "-//W3C//DTD SVG 20010904//EN"
 "http://www.w3.org/TR/2001/REC-SVG-20010904/DTD/svg10.dtd">
<svg version="1.0" xmlns="http://www.w3.org/2000/svg"
 width="2189.000000pt" height="2189.000000pt" viewBox="0 0 2189.000000 2189.000000"
 preserveAspectRatio="xMidYMid meet">

<g transform="translate(0.000000,2189.000000) scale(0.100000,-0.100000)"
fill="#000000" stroke="none">
<path d="M0 10945 l0 -10945 10943 2 10942 3 3 10943 2 10942 -10945 0 -10945
0 0 -10945z m10216 6523 c391 -392 733 -742 761 -778 169 -218 299 -488 359
-750 60 -255 58 -601 -5 -861 -68 -284 -222 -582 -414 -799 -41 -47 -1270
-1280 -2731 -2740 l-2656 -2655 -681 680 c-374 374 -715 721 -757 770 -228
270 -375 594 -427 943 -20 130 -19 414 1 551 47 325 174 621 381 891 68 87
5428 5460 5448 5460 6 0 330 -321 721 -712z m6845 -45 c383 -384 720 -727 749
-763 569 -693 574 -1687 11 -2390 -173 -216 -5084 -5146 -6071 -6094 -102 -98
-186 -182 -188 -186 -1 -4 535 -542 1193 -1196 657 -653 1195 -1193 1195
-1199 0 -6 -330 -339 -732 -741 -537 -534 -755 -745 -816 -788 -260 -184 -544
-298 -843 -341 -137 -19 -403 -19 -538 0 -348 51 -676 199 -946 427 -49 42
-662 649 -1361 1350 -893 895 -1289 1298 -1333 1358 -511 694 -500 1615 26
2300 68 88 8928 8960 8948 8960 6 0 324 -314 706 -697z"/>
</g>
</svg>
